<?xml version="1.0" encoding="utf-8"?>
<!-- Generator: Adobe Illustrator 22.0.1, SVG Export Plug-In . SVG Version: 6.00 Build 0)  -->
<svg version="1.1" id="Layer_1" xmlns="http://www.w3.org/2000/svg" xmlns:xlink="http://www.w3.org/1999/xlink" x="0px" y="0px"
	 viewBox="0 0 32 32" style="enable-background:new 0 0 32 32;" xml:space="preserve">
<style type="text/css">
	.st0{fill:#001795;}
	.st1{fill:#FFFFFF;}
</style>
<g transform="translate(0,-952.36218)">
	<path class="st1" d="M2.1,957.7c-0.4,0-0.7,0.3-0.7,0.7c0,0.4,0.3,0.7,0.7,0.7h3.7l5.5,15.1c0.1,0.3,0.4,0.5,0.7,0.5h13.5
		c0.3,0,0.6-0.2,0.7-0.5l4.2-11.3c0.1-0.4-0.1-0.8-0.4-0.9c-0.1,0-0.2,0-0.2,0h-4.2H11.4c-0.4,0-0.7,0.3-0.7,0.7s0.3,0.7,0.7,0.7
		c0,0,0,0,0,0h14.2h3.2l-3.7,9.9H12.6l-5.5-15.1c-0.1-0.3-0.4-0.5-0.7-0.5H2.1C2.2,957.7,2.2,957.7,2.1,957.7z M13.8,976.1
		c-1.6,0-2.8,1.3-2.8,2.8c0,1.6,1.3,2.8,2.8,2.8s2.8-1.3,2.8-2.8C16.7,977.3,15.4,976.1,13.8,976.1z M24.5,976.1
		c-1.6,0-2.8,1.3-2.8,2.8c0,1.6,1.3,2.8,2.8,2.8c1.6,0,2.8-1.3,2.8-2.8C27.4,977.3,26.1,976.1,24.5,976.1z M13.8,977.5
		c0.8,0,1.4,0.6,1.4,1.4s-0.6,1.4-1.4,1.4s-1.4-0.6-1.4-1.4S13.1,977.5,13.8,977.5z M24.5,977.5c0.8,0,1.4,0.6,1.4,1.4
		s-0.6,1.4-1.4,1.4s-1.4-0.6-1.4-1.4S23.8,977.5,24.5,977.5z"/>
</g>
</svg>
