<?xml version="1.0" encoding="utf-8"?>
<!-- Generator: Adobe Illustrator 22.0.1, SVG Export Plug-In . SVG Version: 6.00 Build 0)  -->
<svg version="1.1" id="Layer_1" xmlns="http://www.w3.org/2000/svg" xmlns:xlink="http://www.w3.org/1999/xlink" x="0px" y="0px"
	 viewBox="0 0 32 32" style="enable-background:new 0 0 32 32;" xml:space="preserve">
<style type="text/css">
	.st0{fill:#001795;}
	.st1{fill:#FFFFFF;}
</style>
<path class="st0" d="M27.3,24c-0.1-0.1-0.1-0.1-0.2-0.2l-4.7-4.1c2.6-3.9,2.2-9.3-1.2-12.7c-1.9-1.9-4.4-3-7.1-3S8.9,5,7,7
	C5,8.9,4,11.4,4,14.1s1,5.2,3,7.1c1.9,1.9,4.4,2.9,7.1,2.9c2.2,0,4.2-0.7,5.9-1.9c0.2-0.1,0.3-0.2,0.4-0.3l0.8-0.8c0,0,0,0,0,0
	s0,0,0,0l0.3-0.3l4.6,4.1c0,0,0,0,0,0c0,0,0.1,0,0.1,0.1c0.2,0.2,0.3,0.4,0.3,0.6s-0.1,0.4-0.3,0.6c-0.3,0.3-0.9,0.3-1.2,0
	c0,0,0,0-0.1-0.1c0,0,0,0,0,0l-3.2-3.6c-0.3-0.3-0.7-0.3-1-0.1c-0.3,0.3-0.3,0.7-0.1,1l3.1,3.6c0.1,0.1,0.1,0.1,0.2,0.2
	c0.5,0.5,1.1,0.7,1.7,0.7c0.6,0,1.2-0.2,1.7-0.7C28.2,26.4,28.2,24.9,27.3,24z M8,20.2c-1.6-1.6-2.5-3.8-2.5-6.1S6.4,9.6,8,8
	s3.8-2.5,6.1-2.5s4.5,0.9,6.1,2.5c3.4,3.4,3.4,8.8,0,12.2l0,0c-1.6,1.6-3.8,2.5-6.1,2.5C11.8,22.7,9.6,21.8,8,20.2z"/>
</svg>
