<?xml version="1.0" encoding="utf-8"?>
<!-- Generator: Adobe Illustrator 22.0.1, SVG Export Plug-In . SVG Version: 6.00 Build 0)  -->
<svg version="1.1" id="Layer_1" xmlns="http://www.w3.org/2000/svg" xmlns:xlink="http://www.w3.org/1999/xlink" x="0px" y="0px"
	 viewBox="0 0 32 32" style="enable-background:new 0 0 32 32;" xml:space="preserve">
<style type="text/css">
	.st0{fill:#001795;}
	.st1{fill:#FFFFFF;}
	.st2{fill:none;}
</style>
<path class="st2" d="M26.3,8.4V7.6l-1.6-0.7c-0.4-0.2-0.7-0.6-0.7-1v-1c-2-0.8-4.7-1.6-7.4-2.3c-0.4-0.1-0.8-0.1-1.2,0
	C12.7,3.2,10,4.1,8,4.9v1c0,0.5-0.3,0.9-0.7,1L5.7,7.6v0.8c0,0.5-0.3,0.9-0.7,1l-1.9,0.8c0.3,2.4,2,12.6,12.9,19.1
	c11-6.6,12.7-16.7,12.9-19.1l-2-0.8C26.6,9.3,26.3,8.9,26.3,8.4z"/>
<path class="st1" d="M30.4,8.9L28,8V6.8c0-0.3-0.2-0.5-0.4-0.6l-1.9-0.8V4.1c0-0.3-0.1-0.5-0.4-0.6c-2.1-0.9-5.2-1.9-8.4-2.7
	c-0.3-0.1-0.6-0.1-1-0.1c-0.4,0-0.7,0-1.1,0.1C10.5,2,7.6,3.1,6.6,3.5C6.4,3.6,6.3,3.9,6.3,4.1v1.3L4.3,6.3C4.1,6.4,4,6.6,4,6.8V8
	l-2.3,1C1.4,9,1.3,9.3,1.3,9.5c0,0.1,0.3,13.5,14.3,21.6c0.2,0.1,0.7,0.1,1,0C30.5,23,30.7,9.7,30.7,9.5C30.7,9.3,30.6,9,30.4,8.9z
	 M29.4,10.1c-0.2,2.1-1.7,12.9-13.3,19.8L16,30l-0.1-0.1C4.6,23.2,2.8,13.1,2.6,10.1l0-0.2L4.8,9c0.2-0.1,0.4-0.3,0.4-0.6V7.3
	l1.9-0.8c0.2-0.1,0.4-0.3,0.4-0.6V4.5l0.2-0.1c2-0.8,4.8-1.7,7.5-2.4c0.5-0.1,1-0.1,1.5,0c2.8,0.7,5.6,1.6,7.6,2.4l0.2,0.1v1.3
	c0,0.3,0.2,0.5,0.4,0.6l1.9,0.8v1.2c0,0.3,0.2,0.5,0.4,0.6l2.3,0.9L29.4,10.1z"/>
<g>
	<path class="st1" d="M15,6.2c-0.5,0.2-1,0.3-1.5,0.5c-1.6,0.6-3.1,1.5-4.5,2.6c-0.4,0.3-0.7,0.6-1.1,0.9c-0.5,0.4-0.9,0.8-1.4,1.2
		c0,0-0.1,0.1-0.1,0.2c0.1,0.7,0.2,1.3,0.4,2c0.1,0.5,0.2,1,0.4,1.5c0.7,2.6,1.9,4.9,3.3,6.8c0,0,0.1,0.1,0.2,0.1
		c0.1,0,0.1,0,0.2-0.1c0,0,0,0,0-0.1c0,0,0,0,0-0.1l0.8-1.3c0-0.1,0-0.2,0-0.2c-1.9-2.6-2.9-6-3.2-7.8c0-0.1,0-0.2,0.1-0.2
		c0.2-0.1,0.3-0.3,0.5-0.4c1.2-1,2.5-1.9,3.9-2.5c0,0,0.1,0,0.1,0c0,0,0.1,0,0.1,0c0.1,0,0.1,0.1,0.1,0.2v14.7c0,0.1,0,0.1,0.1,0.2
		l1.5,0.9c0.1,0,0.1,0,0.2,0c0.1,0,0.1-0.1,0.1-0.2V6.4c0-0.1,0-0.1-0.1-0.2C15.1,6.2,15,6.2,15,6.2z"/>
	<path class="st1" d="M25.6,11.8c0-0.1,0-0.1-0.1-0.2c-0.4-0.4-0.9-0.8-1.4-1.2c-0.1-0.1-0.2-0.1-0.3,0c0,0-0.1,0.1-0.1,0.1
		c-0.1,0.6-0.2,1.6-0.4,2.2c0,0,0,0,0,0.1c-0.1,0.5-0.2,0.9-0.3,1.3c0,0.1-0.2,0.2-0.3,0.2l-0.4-0.1c-1-0.2-2-0.3-3.1-0.4
		c-0.1,0-0.2-0.1-0.2-0.2V6.9c0-0.1-0.1-0.2-0.1-0.2c-0.5-0.2-1-0.4-1.5-0.5c0,0,0,0-0.1,0c0,0-0.1,0-0.1,0c-0.1,0-0.1,0.1-0.1,0.2
		v9.1c0,0.1,0,0.1,0.1,0.2c0,0,0.1,0,0.1,0c0.9,0,2.8,0.2,4.8,0.5c0.1,0,0.1,0.1,0.2,0.1s0,0.1,0,0.2c-0.1,0.1-0.1,0.3-0.2,0.4
		c-0.7,1.5-1.7,3.2-2.5,4.2c-0.1,0.1-0.1,0.2,0,0.3l0.9,1.4c0.1,0.1,0.1,0.1,0.2,0.1c0.1,0,0.1,0,0.2-0.1c0.6-0.7,2-2.7,3.1-5.3
		c0.1-0.2,0.2-0.4,0.2-0.6c0-0.1,0.2-0.2,0.3-0.1c0.1,0,0.2,0.1,0.3,0.1c0.1,0,0.1,0,0.2,0c0.1,0,0.1-0.1,0.1-0.1
		c0.2-0.5,0.3-1.1,0.4-1.7c0-0.1,0-0.2-0.1-0.2c0,0,0,0,0,0l-0.3-0.1c-0.1,0-0.2-0.2-0.2-0.3l0.1-0.5C25.3,13.4,25.5,12.4,25.6,11.8
		z"/>
</g>
</svg>
