<?xml version="1.0" encoding="utf-8"?>
<!-- Generator: Adobe Illustrator 22.0.1, SVG Export Plug-In . SVG Version: 6.00 Build 0)  -->
<svg version="1.1" id="Layer_1" xmlns="http://www.w3.org/2000/svg" xmlns:xlink="http://www.w3.org/1999/xlink" x="0px" y="0px"
	 viewBox="0 0 32 32" style="enable-background:new 0 0 32 32;" xml:space="preserve">
<style type="text/css">
	.st0{fill:#001795;}
	.st1{fill:#FFFFFF;}
</style>
<path class="st1" d="M29,16c0-7.1-5.8-13-13-13S3,8.9,3,16s5.8,13,13,13S29,23.1,29,16z M4.4,16C4.4,9.6,9.6,4.4,16,4.4
	S27.6,9.6,27.6,16c0,3.1-1.2,5.8-3.1,7.9c-1.8-1.2-3.4-2.1-4.1-2.5V20c0.2-0.4,0.3-0.8,0.4-1.2c0.5-0.2,0.9-0.8,1.2-2
	c0.3-1.1,0.3-1.9-0.1-2.4c0.4-2.1,0.2-3.7-0.5-4.7C21,9.2,20.6,9,20.3,8.9c-0.2-0.3-0.6-0.8-1.4-1.2C18,7.1,16.9,6.9,15.8,7
	c-0.4,0-0.8,0.1-1.3,0.2c0,0,0,0,0,0c-0.5,0.2-0.9,0.4-1.3,0.7c-0.5,0.3-0.9,0.7-1.3,1.1c-0.8,0.8-1.3,1.7-1.5,2.6
	c-0.2,0.8-0.2,1.5-0.1,2.3c-0.1,0.1-0.1,0.1-0.2,0.2c-0.4,0.5-0.4,1.2-0.1,2.4c0.2,0.8,0.5,1.5,1,1.9c0.1,0.7,0.4,1.4,0.7,1.9v1.2
	c-0.7,0.4-2.3,1.2-4.1,2.5C5.6,21.8,4.4,19.1,4.4,16z M12.5,22.5c0.3-0.1,0.5-0.5,0.5-0.8v-1.6c0-0.1,0-0.2-0.1-0.4
	c-0.3-0.5-0.5-1.2-0.7-2c-0.1-0.3-0.2-0.5-0.5-0.5c-0.1-0.1-0.2-0.4-0.5-1.1c-0.2-0.6-0.2-0.9-0.2-1.1c0.2,0,0.4-0.1,0.5-0.3
	c0.1-0.2,0.2-0.4,0.1-0.6c-0.2-0.7-0.3-1.4-0.1-2.2c0.2-0.7,0.5-1.4,1.2-2c0.3-0.4,0.7-0.6,1.1-0.9c0,0,0,0,0,0
	c0.3-0.2,0.7-0.4,1-0.5c0,0,0,0,0,0c0.3-0.1,0.6-0.2,0.9-0.2c0.9-0.1,1.6,0.1,2.3,0.5c0.7,0.4,1.1,0.9,1.1,0.9
	c0.1,0.2,0.3,0.4,0.5,0.4c0,0,0.3,0.1,0.5,0.4c0.3,0.4,0.7,1.5,0.2,4c-0.1,0.3,0.1,0.6,0.4,0.7c0,0.1,0,0.4-0.2,1.1
	c-0.2,0.6-0.3,0.9-0.4,1.1c-0.1,0-0.2,0-0.3,0.1c-0.2,0.1-0.4,0.3-0.4,0.5c-0.1,0.6-0.3,1.1-0.5,1.6c-0.1,0.1-0.1,0.2-0.1,0.3v1.9
	c0,0.3,0.2,0.6,0.5,0.8c0.5,0.2,2.1,1.1,4,2.3c-2.1,1.7-4.7,2.8-7.6,2.8s-5.5-1-7.5-2.7C10.4,23.6,12,22.8,12.5,22.5z"/>
</svg>
