<?xml version="1.0" encoding="utf-8"?>
<!-- Generator: Adobe Illustrator 22.0.1, SVG Export Plug-In . SVG Version: 6.00 Build 0)  -->
<svg version="1.1" id="Layer_1" xmlns="http://www.w3.org/2000/svg" xmlns:xlink="http://www.w3.org/1999/xlink" x="0px" y="0px"
	 viewBox="0 0 32 32" style="enable-background:new 0 0 32 32;" xml:space="preserve">
<style type="text/css">
	.st0{fill:#001795;}
	.st1{fill:#FFFFFF;}
</style>
<path class="st1" d="M16,3.3C9,3.3,3.3,9,3.3,16S9,28.7,16,28.7c2.5,0,4.8-0.8,6.1-2.1c1.3-1.2,1.9-2.5,1.7-3.9
	c-0.3-2.7-3.4-4.6-3.7-4.8c-0.2-0.1-0.4-0.2-0.6-0.2c-0.3,0-0.6,0.1-1,0.4c-0.2,0.1-0.4,0.3-0.8,0.7c-0.2,0.2-0.4,0.4-0.5,0.5
	c0,0,0,0-0.1,0.1c-0.2-0.2-1.1-0.8-2.5-2.5c-1.4-1.6-1.7-2.6-1.7-2.9c0,0,0.1-0.1,0.1-0.1c0.1-0.1,0.3-0.2,0.4-0.3
	c0.1,0,0.2-0.1,0.2-0.1l0.8-0.6c0.4-0.3,0.6-0.6,0.6-0.9c0-0.2,0-0.4-0.1-0.6l0,0c-0.1-0.4-1.5-3.5-1.6-3.6
	c-0.4-0.5-1.3-0.4-1.7-0.3c-2.8,1.1-3.1,3.1-3.2,3.7c0,0.2-0.3,4.1,3,8.2c3.6,4.4,6.6,4.9,7.2,4.9c0.2,0,1.1,0.1,2-0.3
	c0.2-0.1,0.3-0.2,0.4-0.3c0.1-0.2,0.1-0.3,0-0.5c-0.1-0.4-0.5-0.5-0.9-0.4c-0.6,0.2-1.1,0.2-1.3,0.2c0,0,0,0-0.1,0
	c-0.3,0-2.9-0.3-6.3-4.4c-3-3.7-2.7-7.2-2.7-7.2c0-0.5,0.3-1.8,2.4-2.6c0,0,0.1,0,0.2,0c0.2,0.5,0.8,1.7,1.1,2.4
	c0.1,0.3,0.2,0.5,0.3,0.6c0,0,0,0,0,0c0,0-0.1,0-0.1,0.1c-0.2,0.2-0.4,0.3-0.6,0.4c-0.3,0.2-0.6,0.4-0.8,0.5
	c-0.2,0.2-0.6,0.5-0.6,0.9c0,1.4,1.1,3,2.1,4c1.7,2,2.7,2.7,3,2.8l0.1,0c0.1,0.1,0.2,0.1,0.4,0.1c0.5,0.1,0.9-0.2,1-0.4
	c0.1-0.1,0.3-0.3,0.6-0.6c0.1-0.2,0.4-0.4,0.5-0.5c0,0,0.1-0.1,0.1-0.1c0,0,0,0,0.1-0.1c0,0,0,0,0,0c0.5,0.3,2.8,1.9,3,3.8
	c0.1,0.9-0.4,1.9-1.3,2.8c-1.1,1.1-3,1.7-5.2,1.7C9.7,27.4,4.6,22.3,4.6,16S9.7,4.6,16,4.6S27.4,9.7,27.4,16c0,2.1-0.6,4.1-1.6,5.8
	c-0.2,0.4-0.1,0.8,0.2,0.9c0.4,0.2,0.8,0.1,0.9-0.2c1.2-2,1.8-4.2,1.8-6.5C28.7,9,23,3.3,16,3.3z"/>
</svg>
