<?xml version="1.0" encoding="utf-8"?>
<!-- Generator: Adobe Illustrator 22.0.1, SVG Export Plug-In . SVG Version: 6.00 Build 0)  -->
<svg version="1.1" id="Layer_1" xmlns="http://www.w3.org/2000/svg" xmlns:xlink="http://www.w3.org/1999/xlink" x="0px" y="0px"
	 viewBox="0 0 32 32" style="enable-background:new 0 0 32 32;" xml:space="preserve">
<style type="text/css">
	.st0{fill:#FFCF56;}
</style>
<circle class="st0" cx="16" cy="16" r="16"/>
<path d="M23.4,18.4c-1-0.4-2.5-1.2-3.5-0.3l-1,0.9c-0.9-0.6-1.8-1.3-2.5-2.1l-0.1-0.1c-0.7-0.7-1.4-1.6-1.9-2.4l0.8-1
	c0.9-1,0.1-2.5-0.3-3.6c-0.7-1.8-0.9-2.7-3-2.7c-0.6,0-1.3,0.3-1.7,0.7c-3.8,4,0,9.1,3,12.1c0.9,0.9,2.1-0.2,1.1-1.1
	c-1.9-1.9-4.2-4.6-4.1-7.4c0-0.8,0.6-2.5,1.5-2.7l0.1,0l0.1,0c0.3,0,0.6,0,0.9,0c0.2,0.2,1.3,3.3,1.3,3.5L13,13.4
	c-0.3,0.3-0.4,0.8-0.4,1.2c0,0.4,0.2,0.6,0.2,0.6c0.6,1,1.4,1.9,2.2,2.8l0.2,0.2c0.7,0.7,1.4,1.2,1.9,1.6c0.5,0.4,0.9,0.6,0.9,0.6
	c0.6,0.4,1.3,0.2,1.8-0.2l1.1-0.9c0.4,0,3.1,1,3.5,1.3c0,0.5,0,0.8,0,0.8l0,0.1l0,0.1c0,0.1-0.1,0.2-0.2,0.4
	c-3.9,3.7-7.1-2.8-10.1,0.2c-0.8,0.8,0.4,1.9,1.1,1.1c0.5-0.5,1.1-0.6,2.1,0.1c1.4,0.9,2.8,1.3,4.4,1.3c1.6,0,4.4-1.3,4.3-3.3
	C26.1,19.3,25.2,19.1,23.4,18.4z M12.5,22.9c-0.5,0-1,0.4-1,1c0,0.5,0.4,1,1,1c0.5,0,1-0.4,1-1C13.5,23.3,13,22.9,12.5,22.9z"/>
</svg>
