<?xml version="1.0" encoding="utf-8"?>
<!-- Generator: Adobe Illustrator 22.0.1, SVG Export Plug-In . SVG Version: 6.00 Build 0)  -->
<svg version="1.1" id="Layer_1" xmlns="http://www.w3.org/2000/svg" xmlns:xlink="http://www.w3.org/1999/xlink" x="0px" y="0px"
	 viewBox="0 0 32 32" style="enable-background:new 0 0 32 32;" xml:space="preserve">
<style type="text/css">
	.st0{fill:#001795;}
	.st1{fill:#FFFFFF;}
</style>
<g>
	<path class="st0" d="M3.5,9.5c0-0.5,0.4-0.8,0.8-0.8h20.8c0.5,0,0.8,0.4,0.8,0.8c0,0.5-0.4,0.8-0.8,0.8H4.3
		C3.9,10.4,3.5,10,3.5,9.5z"/>
	<path class="st0" d="M3.5,16.6c0-0.5,0.4-0.8,0.8-0.8h23.3c0.5,0,0.8,0.4,0.8,0.8c0,0.5-0.4,0.8-0.8,0.8H4.3
		C3.9,17.4,3.5,17,3.5,16.6z"/>
	<path class="st0" d="M3.5,23.6c0-0.5,0.4-0.8,0.8-0.8h19.1c0.5,0,0.8,0.4,0.8,0.8c0,0.5-0.4,0.8-0.8,0.8H4.3
		C3.9,24.5,3.5,24.1,3.5,23.6z"/>
</g>
</svg>
