<?xml version="1.0" encoding="utf-8"?>
<!-- Generator: Adobe Illustrator 22.0.1, SVG Export Plug-In . SVG Version: 6.00 Build 0)  -->
<svg version="1.1" id="Layer_1" xmlns="http://www.w3.org/2000/svg" xmlns:xlink="http://www.w3.org/1999/xlink" x="0px" y="0px"
	 viewBox="0 0 32 32" style="enable-background:new 0 0 32 32;" xml:space="preserve">
<style type="text/css">
	.st0{fill:#001795;}
	.st1{fill:#FFFFFF;}
</style>
<g>
	<path class="st0" d="M16,5.5c-1.5,0-2.7,1.2-2.7,2.7s1.2,2.7,2.7,2.7s2.7-1.2,2.7-2.7S17.5,5.5,16,5.5z M16,9.7
		c-0.8,0-1.4-0.7-1.4-1.4s0.7-1.4,1.4-1.4s1.4,0.7,1.4,1.4S16.8,9.7,16,9.7z M24.2,10.9c1.5,0,2.7-1.2,2.7-2.7s-1.2-2.7-2.7-2.7
		c-1.5,0-2.7,1.2-2.7,2.7S22.6,10.9,24.2,10.9z M24.2,6.8c0.8,0,1.4,0.7,1.4,1.4s-0.7,1.4-1.4,1.4c-0.8,0-1.4-0.7-1.4-1.4
		S23.4,6.8,24.2,6.8z M7.8,10.9c1.5,0,2.7-1.2,2.7-2.7S9.4,5.5,7.8,5.5c-1.5,0-2.7,1.2-2.7,2.7S6.4,10.9,7.8,10.9z M7.8,6.8
		c0.8,0,1.4,0.7,1.4,1.4S8.6,9.6,7.8,9.6S6.4,9,6.4,8.2S7.1,6.8,7.8,6.8z M16,18.7c1.5,0,2.7-1.2,2.7-2.7s-1.2-2.7-2.7-2.7
		s-2.7,1.2-2.7,2.7S14.5,18.7,16,18.7z M16,14.6c0.8,0,1.4,0.7,1.4,1.4s-0.7,1.4-1.4,1.4s-1.4-0.7-1.4-1.4S15.2,14.6,16,14.6z
		 M24.2,18.7c1.5,0,2.7-1.2,2.7-2.7s-1.2-2.7-2.7-2.7s-2.7,1.2-2.7,2.7S22.6,18.7,24.2,18.7z M24.2,14.6c0.8,0,1.4,0.7,1.4,1.4
		s-0.7,1.4-1.4,1.4c-0.8,0-1.4-0.7-1.4-1.4S23.4,14.6,24.2,14.6z M7.8,18.7c1.5,0,2.7-1.2,2.7-2.7s-1.2-2.7-2.7-2.7S5.1,14.5,5.1,16
		S6.4,18.7,7.8,18.7z M7.8,14.6c0.8,0,1.4,0.7,1.4,1.4s-0.7,1.4-1.4,1.4S6.4,16.8,6.4,16S7.1,14.6,7.8,14.6z M16,26.5
		c1.5,0,2.7-1.2,2.7-2.7c0-1.5-1.2-2.7-2.7-2.7s-2.7,1.2-2.7,2.7C13.3,25.3,14.5,26.5,16,26.5z M16,22.3c0.8,0,1.4,0.7,1.4,1.4
		c0,0.8-0.7,1.4-1.4,1.4s-1.4-0.7-1.4-1.4C14.6,23,15.2,22.3,16,22.3z M24.2,26.5c1.5,0,2.7-1.2,2.7-2.7c0-1.5-1.2-2.7-2.7-2.7
		s-2.7,1.2-2.7,2.7C21.5,25.3,22.6,26.5,24.2,26.5z M24.2,22.3c0.8,0,1.4,0.7,1.4,1.4c0,0.8-0.7,1.4-1.4,1.4c-0.8,0-1.4-0.7-1.4-1.4
		C22.7,23,23.4,22.3,24.2,22.3z M7.8,26.5c1.5,0,2.7-1.2,2.7-2.7c0-1.5-1.2-2.7-2.7-2.7s-2.7,1.2-2.7,2.7
		C5.1,25.3,6.4,26.5,7.8,26.5z M7.8,22.3c0.8,0,1.4,0.7,1.4,1.4c0,0.8-0.7,1.4-1.4,1.4s-1.4-0.7-1.4-1.4C6.4,23,7.1,22.3,7.8,22.3z"
		/>
</g>
</svg>
