<?xml version="1.0" encoding="utf-8"?>
<!-- Generator: Adobe Illustrator 22.0.1, SVG Export Plug-In . SVG Version: 6.00 Build 0)  -->
<svg version="1.1" id="Layer_1" xmlns="http://www.w3.org/2000/svg" xmlns:xlink="http://www.w3.org/1999/xlink" x="0px" y="0px"
	 viewBox="0 0 32 32" style="enable-background:new 0 0 32 32;" xml:space="preserve">
<style type="text/css">
	.st0{fill:#001795;}
	.st1{fill:#FFFFFF;}
</style>
<g transform="translate(0,-952.36218)">
	<path class="st1" d="M8.5,956.4c-1.1,0-2,0.9-2,2v21.3c0,0.4,0.3,0.7,0.7,0.7c0.2,0,0.3-0.1,0.4-0.2l8.4-7.1l8.4,7.1
		c0.3,0.2,0.7,0.2,1-0.1c0.1-0.1,0.2-0.3,0.2-0.4v-19.9c0-0.4-0.3-0.7-0.7-0.7c-0.4,0-0.7,0.3-0.7,0.7c0,0,0,0,0,0v18.5l-7.7-6.5
		c-0.3-0.2-0.6-0.2-0.9,0l-7.7,6.5v-19.8c0-0.4,0.3-0.7,0.7-0.7h16.3c0.4,0,0.7-0.3,0.7-0.7c0-0.4-0.3-0.7-0.7-0.7c0,0,0,0,0,0H8.5z
		"/>
</g>
</svg>
