<?xml version="1.0" encoding="utf-8"?>
<!-- Generator: Adobe Illustrator 22.0.1, SVG Export Plug-In . SVG Version: 6.00 Build 0)  -->
<svg version="1.1" xmlns="http://www.w3.org/2000/svg" xmlns:xlink="http://www.w3.org/1999/xlink" x="0px" y="0px"
	 viewBox="0 0 95.9 99.6" style="enable-background:new 0 0 95.9 99.6;" xml:space="preserve">
<style type="text/css">
	.st0{display:none;}
	.st1{display:inline;fill:#0E239B;}
	.st2{fill:#FFFFFF;}
</style>
<g id="Layer_2" class="st0">
	<rect x="-8.5" y="-5.7" class="st1" width="109.6" height="109.6"/>
</g>
<g id="Слой_1">
	<g>
		<path class="st2" d="M48.4,98.5c-0.6,0-1.2-0.3-1.3-0.3L46.7,98l-0.3-0.1c-3.1-1.5-6.4-3.5-10.4-6.1c-1.7-1.1-3.3-2.3-5.2-3.9
			c-2.6-2.2-4.3-3.8-5.8-5.3c-0.4-0.3-0.7-0.6-1-0.9c0,0-0.1-0.1-0.1-0.1c-0.1-0.1-0.1-0.2-0.2-0.2l-0.2-0.1
			c-0.2-0.2-0.4-0.4-0.6-0.6c-0.2-0.2-0.3-0.4-0.5-0.6L22,79.6v-0.1l-0.3-0.3c-0.1-0.1-0.1-0.2-0.2-0.2c-0.1-0.1-0.2-0.2-0.2-0.2
			L21,78.4v-0.1c-0.1-0.2-0.2-0.3-0.3-0.4c-0.2-0.2-0.4-0.4-0.5-0.7c-0.1,0-0.2-0.2-0.2-0.3l-1.1-1.5l-0.9-1.4V74l0,0l0,0
			c-0.3-0.3-0.4-0.4-0.5-0.7l-0.1-0.2c-0.1-0.1-0.2-0.2-0.2-0.4c0-0.1-0.1-0.1-0.1-0.1c0,0,0-0.1-0.1-0.1c-0.4-0.4-0.6-0.7-0.6-0.9
			c-0.1,0-0.2-0.2-0.2-0.4c0-0.1-0.1-0.1-0.1-0.1c0,0,0-0.1-0.1-0.1l-0.1-0.1l-0.1-0.3c0,0,0,0,0,0c0,0-0.1-0.1-0.1-0.2
			c0-0.1-0.1-0.1-0.1-0.2c-0.2-0.2-0.3-0.4-0.4-0.7h-0.1v-0.3c0,0,0,0,0,0c0,0-0.1,0-0.1-0.1c-0.1-0.1-0.1-0.2-0.2-0.3
			c-0.1-0.1-0.2-0.2-0.3-0.4l-0.1-0.1c-0.1-0.1-0.1-0.2-0.2-0.3c0,0,0-0.1-0.1-0.1L13.8,68c-0.1-0.1-0.1-0.2-0.2-0.3
			c0,0,0-0.1-0.1-0.2c0-0.1-0.1-0.2-0.1-0.2c-0.1-0.1-0.1-0.2-0.2-0.3l-0.6-1.2c0-0.1-0.1-0.2-0.1-0.2c-0.1-0.1-0.1-0.2-0.2-0.3
			l-0.6-1.2c0-0.1-0.1-0.2-0.1-0.2c-0.1-0.1-0.1-0.2-0.2-0.3L11.2,63l-0.3-0.8v-0.2c0-0.1,0-0.1-0.2-0.3l-0.3-0.4l-0.6-0.7L9.5,60
			c-0.1-0.1-0.1-0.2-0.1-0.3c0-0.1,0-0.1-0.1-0.2l0-0.1v-0.2c0-0.1-0.1-0.2-0.1-0.3c0,0,0-0.1,0-0.1c-0.2-0.2-0.2-0.4-0.3-0.6
			c0-0.1,0-0.1-0.1-0.2c0,0-0.1-0.1-0.1-0.2c0,0,0-0.1,0-0.1l-0.3-0.7c-0.1-0.3-0.2-0.5-0.3-0.6c-0.2-0.1-0.2-0.3-0.3-0.4
			c0,0,0-0.1-0.1-0.1l-0.1-0.3v-0.2l-0.1-0.1v-0.3c0-0.1-0.1-0.2-0.1-0.3c-0.1-0.1-0.1-0.3-0.2-0.4c0-0.1-0.1-0.2-0.1-0.3
			c-0.1-0.2-0.2-0.4-0.3-0.7c-2.7-7.4-4.4-15.6-5.2-24.1c-0.1-0.4-0.1-0.8-0.1-1v-0.9l2.7-1.1l5.4-2.4V19l4-1.6l2.9-1.2v-5.3
			l0.8-0.3c0.4-0.1,14.6-5.2,16.1-5.8c3.2-1.1,6.9-2,11.5-3.3l0.5-0.1c1-0.2,2-0.3,3-0.3c1,0,1.8,0.1,2.8,0.3
			c2.3,0.6,4.6,1.2,6.7,1.7l0.2,0c0.1,0,0.2,0,0.2,0c0.1,0,0.2,0.1,0.3,0.1h0.1l0.1,0c0.1,0,0.1,0.1,0.2,0.1c0.1,0,0.2,0.1,0.3,0.1
			c0.2,0,0.8,0.2,1.1,0.3c0.7,0.3,19,6.9,19.4,7l0.8,0.3v5.3l4.6,1.9l2.3,0.9v4.7l6.7,2.7l1.4,0.5v1.2c-0.1,2.3-0.4,4.7-0.7,6.9
			c-0.9,6.7-2.5,12.7-4.7,18.3c-0.1,0.3-0.2,0.6-0.4,0.9c0,0.1-0.1,0.2-0.1,0.3c0,0.1-0.1,0.2-0.1,0.3c0,0.3-0.2,0.5-0.3,0.7
			l-0.1,0.1c0,0.1-0.1,0.2-0.1,0.2c0,0.1-0.1,0.2-0.1,0.3l-0.3,0.6c-0.1,0.3-0.2,0.5-0.3,0.7c0,0.1-0.1,0.1-0.1,0.2
			C88,57.9,88,57.9,88,58v0.1l0,0.1c0,0.1-0.1,0.2-0.1,0.2c0,0.1-0.1,0.2-0.1,0.3c-0.1,0.3-0.2,0.5-0.3,0.7c0,0.1-0.1,0.1-0.1,0.2
			c-0.1,0.1-0.1,0.2-0.1,0.2v0.1l0,0.1c0,0.1-0.1,0.2-0.1,0.2c0,0.1-0.1,0.2-0.1,0.3c-0.1,0.3-0.2,0.5-0.3,0.7
			c0,0.1-0.1,0.1-0.1,0.2c-0.1,0.1-0.1,0.2-0.1,0.2v0.1l-0.3,0.7l-0.3,1l-0.3,0.6c-0.1,0.1-0.1,0.2-0.2,0.3c0,0.1-0.1,0.1-0.1,0.2
			l-0.6,1.2c-0.1,0.1-0.1,0.2-0.2,0.3c0,0.1-0.1,0.1-0.1,0.2l-0.6,1.2c-0.1,0.1-0.1,0.2-0.2,0.3c0,0.1-0.1,0.1-0.1,0.2l-0.1,0.2
			l-0.1,0.1l-0.2,0.3L83,68.3c-0.2,0.2-0.3,0.4-0.4,0.6c-0.1,0.1-0.1,0.2-0.2,0.3c-0.1,0.1-0.1,0.1-0.1,0.2c0,0.1,0,0.1-0.1,0.2
			l-0.1,0.2c0,0-0.1,0.2-0.2,0.3c-0.1,0.1-0.1,0.2-0.2,0.3c-0.1,0.1-0.1,0.2-0.2,0.2c-0.1,0.1-0.1,0.2-0.2,0.2c0,0,0,0-0.1,0.1
			c0,0.1,0,0.1-0.1,0.2l-0.1,0.1v0.1L81,71.5c-0.1,0.2-0.3,0.4-0.4,0.5c0,0-0.1,0.2-0.2,0.3c-0.1,0.1-0.1,0.1-0.2,0.2v0.2l-0.2,0.1
			c-0.1,0.2-0.2,0.3-0.3,0.4c0,0-0.1,0.1-0.1,0.1c-0.1,0.1-0.2,0.2-0.3,0.4c0,0-0.1,0.1-0.1,0.2c-0.1,0.1-0.1,0.2-0.2,0.2
			c0,0.1-0.1,0.2-0.2,0.3c-0.1,0.2-0.2,0.3-0.2,0.3c-0.2,0.2-0.5,0.5-0.7,0.8c-0.1,0.2-0.2,0.4-0.3,0.5L76.8,77
			c0,0.2-0.2,0.3-0.3,0.4c-0.1,0.1-0.2,0.2-0.2,0.3c-0.1,0.1-0.2,0.2-0.3,0.3c-0.1,0.1-0.2,0.2-0.2,0.3c0,0-0.1,0.1-0.1,0.1v0.1
			l-0.2,0.4c-0.1,0.1-0.1,0.2-0.2,0.2c-0.1,0.1-0.2,0.3-0.4,0.4l-0.3,0.3v0.1l-2.9,2.9c-2.4,2.5-5.4,5.1-9.2,7.9
			c-3.4,2.6-7.4,5-12.2,7.4l-0.7,0.3l-0.2,0.1h-0.1c-0.1,0-0.2,0-0.3,0C48.9,98.5,48.7,98.5,48.4,98.5z M7.1,31.3
			C7.4,36,10.9,71,48.4,92.9l0.1,0.1c36.6-21.5,40.8-54.8,41.2-61.8l-8.2-3.4v-4.7l-6.9-2.9V15c-6.5-2.7-15.5-5.5-24-7.5
			c-0.8-0.2-1.5-0.3-2.2-0.3c-0.9,0-1.8,0.2-2.5,0.4c-8.8,2.2-17.4,5-23.6,7.5v5.2l-7,2.9v4.7L7.1,31.3z"/>
		<path class="st2" d="M48.3,1.4c1,0,1.8,0.1,2.7,0.3c2.3,0.6,4.6,1.2,6.7,1.7H58c0.1,0,0.3,0.1,0.5,0.1c0.2,0.1,0.4,0.1,0.5,0.2
			c0,0,0.8,0.2,1.1,0.3c0.8,0.3,19.1,6.9,19.4,7l0.6,0.2v5.3l4.8,2l2.1,0.8V24l6.9,2.8l1.2,0.4v1c-0.1,2.3-0.4,4.6-0.7,6.9
			c-0.9,6.5-2.4,12.5-4.7,18.2c-0.1,0.3-0.2,0.6-0.4,0.9c-0.1,0.2-0.2,0.5-0.3,0.7c0,0.3-0.2,0.6-0.3,0.8c-0.1,0.2-0.1,0.3-0.2,0.5
			c-0.1,0.2-0.2,0.4-0.3,0.6c-0.1,0.3-0.2,0.5-0.3,0.7c-0.1,0.2-0.2,0.3-0.2,0.5c-0.1,0.2-0.1,0.3-0.2,0.5c-0.1,0.3-0.2,0.5-0.3,0.7
			c-0.1,0.2-0.2,0.3-0.2,0.5c-0.1,0.2-0.1,0.3-0.2,0.5c-0.1,0.3-0.2,0.5-0.3,0.7c-0.1,0.2-0.2,0.3-0.2,0.5c-0.1,0.2-0.2,0.4-0.3,0.6
			l-0.3,1c-0.1,0.2-0.2,0.4-0.3,0.6c-0.1,0.2-0.2,0.3-0.3,0.5l-0.3,0.6c-0.1,0.2-0.2,0.4-0.3,0.6c-0.1,0.2-0.2,0.3-0.3,0.5l-0.3,0.6
			c-0.1,0.2-0.2,0.4-0.3,0.6c-0.1,0.2-0.2,0.3-0.3,0.5l-0.1,0.1l-0.1,0.1L82.9,68l-0.1,0.1c-0.3,0.4-0.4,0.6-0.6,0.9
			c-0.1,0.1-0.1,0.2-0.2,0.4l-0.1,0.1c-0.1,0.2-0.3,0.5-0.4,0.7c-0.1,0.1-0.2,0.3-0.3,0.4c-0.1,0.1-0.1,0.2-0.2,0.4l-0.1,0.1v0.1
			l-0.1,0.1c-0.1,0.2-0.3,0.4-0.4,0.5c-0.1,0.2-0.3,0.4-0.4,0.6v0.1h-0.1c-0.1,0.2-0.2,0.3-0.3,0.4s-0.2,0.3-0.4,0.5
			c-0.1,0.1-0.2,0.3-0.3,0.4c-0.2,0.3-0.3,0.5-0.4,0.6c-0.2,0.2-0.5,0.5-0.7,0.8c-0.1,0.2-0.2,0.4-0.3,0.5l-0.9,1.2
			c0,0.1-0.1,0.2-0.2,0.3c-0.2,0.2-0.3,0.4-0.5,0.6c-0.2,0.2-0.3,0.4-0.4,0.5v0.1l-0.2,0.3c-0.2,0.2-0.3,0.4-0.5,0.5
			c-0.1,0.1-0.3,0.3-0.4,0.4v0.1l-2.8,2.8c-2.6,2.7-5.7,5.3-9.2,7.9c-3.7,2.8-7.8,5.2-12.2,7.4l-0.7,0.3l-0.2,0.1
			c-0.2,0-0.5,0.1-0.9,0.1c-0.5,0-1-0.2-1.2-0.3l-0.4-0.2l-0.3-0.1c-3.5-1.7-6.9-3.8-10.3-6.1c-1.7-1.1-3.3-2.3-5.2-3.9
			c-2.2-1.9-4.1-3.6-5.8-5.3c-0.4-0.3-0.7-0.6-1-0.9c-0.1-0.1-0.2-0.3-0.4-0.4L23.7,81c-0.4-0.4-0.7-0.8-1.1-1.2l-0.3-0.3v-0.1
			c-0.1-0.1-0.3-0.3-0.4-0.4c-0.2-0.2-0.3-0.4-0.5-0.5l-0.2-0.2v-0.1c-0.1-0.2-0.3-0.4-0.4-0.5c-0.2-0.2-0.4-0.4-0.5-0.6
			c-0.1-0.1-0.2-0.2-0.2-0.3L19,75.3L18.1,74v-0.1c0-0.1,0-0.1-0.1-0.1c-0.3-0.3-0.4-0.5-0.6-0.8c-0.1-0.1-0.2-0.2-0.2-0.4
			c-0.1-0.1-0.1-0.2-0.2-0.3c-0.3-0.3-0.5-0.6-0.6-0.8c-0.1-0.1-0.2-0.2-0.2-0.4c-0.1-0.1-0.1-0.2-0.2-0.3l-0.1-0.1l-0.1-0.2
			c-0.1-0.1-0.2-0.3-0.3-0.4c-0.2-0.2-0.3-0.4-0.4-0.7c0-0.1-0.1-0.1-0.1-0.1c0-0.1-0.1-0.1-0.1-0.2c-0.2-0.3-0.4-0.5-0.5-0.7
			c0-0.1-0.1-0.1-0.1-0.1c-0.1-0.1-0.1-0.2-0.2-0.4c0-0.1-0.1-0.1-0.1-0.1c-0.1-0.1-0.1-0.2-0.2-0.4c-0.1-0.2-0.2-0.3-0.3-0.5
			c-0.1-0.2-0.2-0.4-0.3-0.6l-0.3-0.6c-0.1-0.2-0.2-0.3-0.3-0.5c-0.1-0.2-0.2-0.4-0.3-0.6L12,64c-0.1-0.2-0.2-0.3-0.3-0.5
			c-0.1-0.2-0.2-0.4-0.3-0.6l-0.3-0.7v-0.1c0-0.2-0.1-0.3-0.3-0.6l-0.2-0.3L10,60.5c-0.1-0.2-0.2-0.4-0.3-0.6
			c-0.1-0.2-0.1-0.3-0.2-0.5v-0.1v-0.1c-0.1-0.2-0.1-0.4-0.2-0.5C9.1,58.5,9.1,58.2,9,58c-0.1-0.1-0.1-0.3-0.2-0.4L8.5,57
			c-0.1-0.3-0.2-0.5-0.3-0.7C8,56.2,8,56,7.9,55.8l-0.1-0.2v-0.2l-0.1-0.1v-0.1v-0.1c-0.1-0.3-0.2-0.5-0.3-0.8s-0.3-0.6-0.4-1
			c-3.5-9.7-4.7-18.5-5.2-24.1c-0.1-0.4-0.1-0.8-0.1-1v-0.7l2.5-1L9.8,24v-4.8l3.8-1.5l3.1-1.3v-5.3l0.6-0.2
			c0.3-0.1,14.5-5.2,16.1-5.8c3.3-1.1,7.1-2.1,12-3.4C46.4,1.5,47.4,1.4,48.3,1.4 M48.5,93.2c0,0,0.1,0,0.2-0.1
			C86.6,70.9,89.7,35.9,90,31l-8.2-3.4v-4.7L74.9,20v-5.2c-6-2.5-14.9-5.4-24.2-7.6c-0.8-0.2-1.6-0.3-2.3-0.3
			c-0.9,0-1.8,0.2-2.6,0.4c-8.8,2.2-17.6,5-23.8,7.6v5.2L15,23v4.7l-8.2,3.4c0.3,5.2,3.8,40,41.5,62L48.5,93.2 M48.3,0.9
			c-0.9,0-2,0.1-3,0.3l-0.5,0.1c-4.7,1.2-8.3,2.2-11.5,3.3c-1.5,0.6-15.7,5.7-16.1,5.8l-0.6,0.2l-0.3,0.1v0.4v5l-2.8,1.2l-3.8,1.5
			l-0.3,0.1v0.3v4.5L4,26l-2.5,1l-0.3,0.1v0.3v0.7c0,0.2,0,0.6,0.1,1.1C2.1,37.8,3.8,46,6.5,53.4c0.1,0.3,0.2,0.5,0.3,0.7
			c0.1,0.1,0.1,0.2,0.1,0.3C7,54.6,7,54.8,7.1,54.9c0,0.1,0.1,0.2,0.1,0.3v0v0.1v0.2l0.1,0.1v0.1l0.1,0.1L7.5,56c0,0,0,0.1,0,0.1
			c0,0.1,0.1,0.3,0.3,0.5C7.9,56.8,8,56.9,8,57.2l0,0l0,0l0.3,0.6l0,0.1l0,0c0,0,0,0,0,0c0,0.1,0.1,0.2,0.1,0.3c0,0,0,0.1,0,0.1
			c0,0.2,0.1,0.4,0.3,0.6c0,0,0,0,0,0.1c0,0.1,0,0.1,0.1,0.2v0.1v0.1l0.1,0.1c0,0.1,0.1,0.1,0.1,0.2c0,0.1,0.1,0.2,0.1,0.3l0.3,0.6
			l0,0.1l0,0l0.6,0.7l0.2,0.3l0.1,0.2c0,0.1,0.1,0.2,0.1,0.2l0,0.1v0.1l0,0.1l0.3,0.7l0.3,0.6c0.1,0.1,0.1,0.2,0.2,0.3
			c0,0.1,0.1,0.1,0.1,0.2l0.3,0.6l0.3,0.6c0.1,0.1,0.1,0.2,0.2,0.3c0,0.1,0.1,0.1,0.1,0.2l0.3,0.6l0.3,0.6c0.1,0.1,0.1,0.2,0.2,0.3
			c0,0.1,0.1,0.1,0.1,0.2c0,0.1,0,0.1,0.1,0.1c0,0.1,0.1,0.2,0.2,0.4l0,0c0,0,0,0.1,0,0.1c0,0.1,0.1,0.2,0.2,0.4l0,0
			c0.1,0.1,0.2,0.2,0.3,0.4c0.1,0.1,0.1,0.2,0.2,0.2c0,0.1,0,0.1,0.1,0.1v0.4h0.2c0.1,0.2,0.2,0.4,0.4,0.7c0,0,0.1,0.1,0.1,0.1
			c0,0.1,0.1,0.1,0.1,0.2l0.1,0.1l0,0.1l0.1,0.1l0.1,0.1c0,0,0,0.1,0.1,0.1c0,0.2,0.2,0.4,0.3,0.5c0.2,0.3,0.4,0.6,0.7,0.9
			c0,0,0,0.1,0.1,0.1c0,0.3,0.2,0.4,0.3,0.5l0.1,0.1c0.1,0.2,0.3,0.4,0.5,0.7v0l0.1,0.1l0.9,1.3l1,1.4c0.1,0.2,0.2,0.3,0.3,0.4
			c0.1,0.2,0.3,0.4,0.6,0.7c0.1,0.1,0.2,0.2,0.3,0.3v0.2l0.1,0.1l0.2,0.2l0.1,0.1l0.1,0c0,0,0.1,0.1,0.2,0.2
			c0.1,0.1,0.1,0.2,0.2,0.2l0.3,0.3v0.1l0.1,0.1l0.3,0.3c0.2,0.2,0.4,0.4,0.5,0.6c0.2,0.2,0.4,0.4,0.6,0.6l0.1,0.1l0.1,0.1l0.1,0
			c0,0,0.1,0.1,0.1,0.1c0,0.1,0.1,0.1,0.1,0.2c0.3,0.3,0.6,0.6,1,0.9c1.5,1.5,3.2,3.1,5.8,5.3c1.9,1.6,3.5,2.8,5.3,3.9
			c3.9,2.7,7.2,4.6,10.4,6.1l0,0l0,0l0.3,0.1l0.4,0.2c0.1,0.1,0.7,0.4,1.4,0.4c0.3,0,0.5,0,0.7-0.1c0.1,0,0.2,0,0.2,0h0.1l0.1-0.1
			l0.2-0.1l0.7-0.3c4.9-2.4,8.9-4.9,12.3-7.5c3.8-2.8,6.8-5.4,9.3-8l2.8-2.8l0.1-0.1v-0.1l0.1-0.1l0.1-0.1c0.2-0.1,0.3-0.2,0.4-0.4
			c0-0.1,0.1-0.1,0.2-0.2l0,0l0,0l0.2-0.3l0.1-0.1v-0.1c0,0,0,0,0-0.1c0.1-0.1,0.1-0.2,0.2-0.3c0.1-0.1,0.2-0.2,0.3-0.4
			c0.1-0.1,0.1-0.2,0.2-0.2c0.1-0.1,0.2-0.2,0.3-0.4l0.8-1.1c0.1-0.1,0.2-0.4,0.3-0.6c0.2-0.3,0.4-0.5,0.6-0.7
			c0.1-0.1,0.2-0.2,0.3-0.4c0-0.1,0.1-0.2,0.2-0.3c0.1-0.1,0.1-0.2,0.2-0.2c0,0,0.1-0.1,0.1-0.1c0.1-0.1,0.2-0.3,0.3-0.4
			c0,0,0.1-0.1,0.1-0.1c0.1-0.1,0.1-0.1,0.2-0.3h0.3v-0.5c0,0,0.1-0.1,0.1-0.1c0.1-0.1,0.1-0.2,0.2-0.3c0.1-0.1,0.3-0.3,0.4-0.5l0,0
			l0.1-0.1v-0.1l0,0l0-0.1c0-0.1,0.1-0.2,0.1-0.2c0,0,0,0,0-0.1c0.1-0.1,0.1-0.2,0.2-0.2c0,0,0.1-0.1,0.1-0.1l0.1-0.1l0-0.1
			c0-0.1,0.1-0.2,0.2-0.3c0.1-0.1,0.1-0.2,0.2-0.3l0,0l0.1-0.1l0-0.1c0-0.1,0.1-0.2,0.1-0.2c0,0,0,0,0-0.1l0,0l0,0
			c0.1-0.1,0.1-0.2,0.2-0.3c0.1-0.2,0.2-0.3,0.4-0.6l0.1-0.1l0,0l0,0l0.2-0.3l0.1-0.1l0.1-0.1l0.1-0.1l0-0.1c0-0.1,0.1-0.1,0.1-0.2
			c0.1-0.1,0.1-0.2,0.2-0.3l0.3-0.6l0.3-0.6c0-0.1,0.1-0.1,0.1-0.2c0.1-0.1,0.1-0.2,0.2-0.3l0.2-0.3l0.2-0.3l0.3-0.6
			c0-0.1,0.1-0.1,0.1-0.2c0.1-0.1,0.1-0.2,0.2-0.3l0.3-0.6l0,0l0,0l0.3-1l0.3-0.6l0.1-0.1v-0.1c0,0,0-0.1,0.1-0.1
			c0-0.1,0.1-0.1,0.1-0.2c0.1-0.2,0.2-0.4,0.3-0.7c0.1-0.1,0.1-0.2,0.1-0.3c0-0.1,0-0.1,0.1-0.2l0.1-0.1v-0.1c0,0,0-0.1,0.1-0.1
			c0-0.1,0.1-0.1,0.1-0.2c0.1-0.2,0.2-0.4,0.3-0.7c0.1-0.1,0.1-0.2,0.1-0.3c0-0.1,0-0.1,0.1-0.2l0.1-0.1V58c0,0,0-0.1,0.1-0.1
			c0-0.1,0.1-0.1,0.1-0.2c0.1-0.2,0.2-0.4,0.3-0.7l0.3-0.6c0.1-0.1,0.1-0.2,0.1-0.3c0-0.1,0-0.1,0.1-0.2l0.1-0.1
			c0.1-0.2,0.3-0.5,0.3-0.8c0-0.1,0.1-0.2,0.1-0.3c0-0.1,0.1-0.2,0.1-0.3c0.2-0.3,0.3-0.7,0.4-1c2.2-5.5,3.8-11.5,4.7-18.3
			c0.3-2.3,0.6-4.6,0.7-6.9l0-1v-0.4l-0.3-0.1l-1.2-0.4l-6.6-2.7v-4.4V19l-0.3-0.1L85.1,18l-4.5-1.9v-5v-0.4l-0.3-0.1l-0.6-0.2
			c-0.4-0.1-18.7-6.7-19.4-7c-0.3-0.1-0.8-0.2-1.1-0.3c-0.1-0.1-0.2-0.1-0.3-0.1c-0.1,0-0.1,0-0.2-0.1L58.6,3h-0.1c0,0-0.1,0-0.2,0
			c-0.1,0-0.2-0.1-0.3-0.1h-0.2c-2.1-0.5-4.4-1.1-6.6-1.7C50.1,1,49.3,0.9,48.3,0.9L48.3,0.9z M22.5,15.2c6.1-2.5,14.7-5.3,23.4-7.4
			c0.8-0.2,1.7-0.4,2.5-0.4c0.7,0,1.4,0.1,2.2,0.3c8.5,2,17.3,4.8,23.8,7.4V20v0.3l0.3,0.1l6.6,2.8v4.4v0.3l0.3,0.1l7.9,3.3
			c-0.5,7.3-4.9,40.1-41,61.3C32.8,83.4,21.1,71,14,55.6c-5.4-11.5-6.4-21-6.7-24.2l7.9-3.3l0.3-0.1v-0.3v-4.4l6.7-2.8l0.3-0.1v-0.3
			V15.2L22.5,15.2z"/>
	</g>
	<path class="st2" d="M25.4,27.4c-1.4,1-2.6,1.9-3.7,3c-1.9,1.7-3.5,3.1-4.7,4.3c0.4,2,0.7,4.3,1.3,6.8c0.4,1.7,0.7,3.3,1.3,5.2
		c2.7,9.7,6.8,17.6,11.6,23.5l0.1-0.1h-0.1l1.9-2.7l1.5-2.1c-6.4-8.6-10-19.9-11.7-28.3c0.6-0.6,1.5-1.4,2.3-2c4-3.2,9.3-7,15.9-10
		v3.7v47v2v0.9l5.3,3.2V22.9v-6.3c-1.9,0.6-3.5,1.2-5.3,1.9C34.8,21.1,29.4,24.5,25.4,27.4z"/>
	<path class="st2" d="M74.3,30.9L74.3,30.9L74.3,30.9c-0.4,2.4-0.9,5.6-1.3,7.7l0,0c-0.5,1.9-0.8,4.2-1.5,6.4
		c-0.9-0.2-1.9-0.4-2.8-0.6c-4.5-0.8-8.9-1.4-12.3-1.7v-0.6V24.9v-6.4c-1.8-0.6-3.4-1.3-5.3-1.9v6.2v19.7v5.8v0.2l0,0l0,0
		c3.5,0.2,10.8,0.6,18.6,2.2l0,0l0,0l0,0l0,0c-0.4,1-0.7,2.1-1.3,3.2c-2.3,5.3-5.9,11.3-8.8,14.8l1.4,2l1.9,2.7l0,0
		c3.5-4.4,7.8-11.1,10.7-18.2c0.5-1.1,0.9-2.2,1.3-3.3c0.3,0.1,0.6,0.2,0.7,0.2l0,0l0,0h0.1c0.6,0.2,1.1,0.4,1.7,0.6
		c0.6-1.9,1.1-3.9,1.6-5.7c-0.7-0.3-1.6-0.6-2.3-0.6c0.3-1,0.6-2.1,0.7-3.1c0.6-2.4,1.2-5.8,1.5-8C77.8,34,76.3,32.5,74.3,30.9
		L74.3,30.9z"/>
</g>
</svg>
