<?xml version="1.0" encoding="utf-8"?>
<!-- Generator: Adobe Illustrator 22.0.1, SVG Export Plug-In . SVG Version: 6.00 Build 0)  -->
<svg version="1.1"
	 id="Layer_1" xmlns:cc="http://creativecommons.org/ns#" xmlns:dc="http://purl.org/dc/elements/1.1/" xmlns:inkscape="http://www.inkscape.org/namespaces/inkscape" xmlns:rdf="http://www.w3.org/1999/02/22-rdf-syntax-ns#" xmlns:sodipodi="http://sodipodi.sourceforge.net/DTD/sodipodi-0.dtd" xmlns:svg="http://www.w3.org/2000/svg"
	 xmlns="http://www.w3.org/2000/svg" xmlns:xlink="http://www.w3.org/1999/xlink" x="0px" y="0px" viewBox="0 0 24 24"
	 style="enable-background:new 0 0 24 24;" xml:space="preserve">
<style type="text/css">
	.st0{fill:#B8B8B8;}
</style>
<g transform="translate(0,-952.36218)">
	<path class="st0" d="M3.2,954.5c-0.2,0-0.3,0.1-0.4,0.3l-2.1,3.8c0,0.1-0.1,0.2-0.1,0.3v1.6c0,0.8,0.4,1.4,1.1,1.8v10.8
		c0,0-1.1,0-1.1,0c-0.3,0-0.5,0.3-0.5,0.6c0,0.3,0.3,0.5,0.6,0.5h14.2c0.3,0,0.6-0.3,0.6-0.5c0-0.3-0.3-0.5-0.6-0.5h-3.8v-7.6
		c0-0.3-0.3-0.5-0.5-0.5c0,0-6,0-6.1,0c-0.3,0-0.5,0.3-0.5,0.5v7.6H2.8v-10.4c0.1,0,0.3,0,0.5,0c0.7,0,1.3-0.2,1.8-0.6
		c0.5,0.4,1.1,0.6,1.8,0.6s1.3-0.2,1.8-0.6c0.5,0.4,1.1,0.6,1.8,0.6c0.7,0,1.3-0.2,1.8-0.6c0.5,0.4,1.1,0.6,1.8,0.6
		c0.7,0,1.3-0.2,1.8-0.6c0.5,0.4,1.1,0.6,1.8,0.6c0.7,0,1.3-0.2,1.8-0.6c0.5,0.4,1.1,0.6,1.8,0.6c0.2,0,0.3,0,0.5,0v10.4
		c0,0-4.4,0-4.4,0c-0.3,0-0.5,0.3-0.5,0.6c0,0.3,0.3,0.5,0.6,0.5h6.5c0.3,0,0.6-0.3,0.6-0.5c0-0.3-0.3-0.5-0.6-0.5h-1.1v-10.8
		c0.7-0.4,1.1-1.1,1.1-1.8v-1.6c0-0.1,0-0.2-0.1-0.3l-2.1-3.8c-0.1-0.2-0.3-0.3-0.5-0.3C20.8,954.5,3.2,954.5,3.2,954.5L3.2,954.5z
		 M3.5,955.6h17l1.5,2.7H2L3.5,955.6z M1.7,959.5h20.7v1c0,0.6-0.6,1.2-1.5,1.2c-0.6,0-1.1-0.3-1.3-0.6c-0.2-0.3-0.7-0.3-0.9,0
		c-0.3,0.3-0.7,0.6-1.3,0.6c-0.6,0-1.1-0.3-1.3-0.6c-0.2-0.3-0.7-0.3-0.9,0c-0.3,0.3-0.7,0.6-1.3,0.6c-0.6,0-1.1-0.3-1.3-0.6
		c-0.2-0.3-0.7-0.3-0.9,0c-0.3,0.3-0.7,0.6-1.3,0.6c-0.6,0-1.1-0.3-1.3-0.6c-0.2-0.3-0.7-0.3-0.9,0c-0.3,0.3-0.7,0.6-1.3,0.6
		s-1.1-0.3-1.3-0.6c-0.2-0.3-0.7-0.3-0.9,0c-0.3,0.3-0.7,0.6-1.3,0.6c-0.9,0-1.5-0.6-1.5-1.2L1.7,959.5z M13.6,964.9
		c-0.3,0-0.5,0.3-0.5,0.5v3.8c0,0.3,0.3,0.5,0.5,0.5h6c0.3,0,0.5-0.3,0.5-0.5v-3.8c0-0.3-0.3-0.5-0.5-0.5
		C19.6,964.9,13.6,964.9,13.6,964.9z M4.9,966h4.9v7.1H4.9L4.9,966z M14.2,966h4.9v2.7h-4.9L14.2,966z"/>
</g>
</svg>
