<?xml version="1.0" encoding="utf-8"?>
<!-- Generator: Adobe Illustrator 19.0.1, SVG Export Plug-In . SVG Version: 6.00 Build 0)  -->
<svg version="1.1" id="Слой_1" xmlns="http://www.w3.org/2000/svg" xmlns:xlink="http://www.w3.org/1999/xlink" x="0px" y="0px"
	 viewBox="0 0 141.7 141.7" style="enable-background:new 0 0 141.7 141.7;" xml:space="preserve">
<style type="text/css">
	.st0{clip-path:url(#SVGID_2_);}
</style>
<g>
	<g>
		<defs>
			<rect id="SVGID_1_" x="18.4" y="0" width="106" height="135.8"/>
		</defs>
		<clipPath id="SVGID_2_">
			<use xlink:href="#SVGID_1_"  style="overflow:visible;"/>
		</clipPath>
		<path class="st0" d="M73.7,41.7c2.3-3.9,6-9.5,10.7-14.8c3.9-4.5,11.7-10.4,11.7-10.4c1.2-0.9,1-2.1-0.3-2.7l-9.3-4.4
			c-1.3-0.6-3.1-0.2-4,1c0,0-6.9,9.9-15,31c-25.1-11.4-49,4.6-49,32.2c0,28.9,22.2,72.8,52.3,59.6c31.7,13.7,52.3-30.7,52.3-59.6
			C123.1,45.8,101.6,29.4,73.7,41.7L73.7,41.7z M73.7,41.7"/>
	</g>
	<path d="M68.1,32.3c1.5-0.1,2.7-1.4,2.9-2.9c0,0,0.9-11.3-6.9-19.2c-7.9-7.9-19.2-6.9-19.2-6.9c-1.5,0.1-2.7,1.4-2.8,2.8
		c0,0-1,11.3,6.9,19.2C56.8,33.3,68.1,32.3,68.1,32.3L68.1,32.3z M68.1,32.3"/>
</g>
</svg>
